<?xml version="1.0" encoding="UTF-8" standalone="no"?>
<!-- This is a Stata 15.1 generated SVG file (http://www.stata.com) -->

<svg version="1.1" width="5.50in" height="4.00in" viewBox="0 0 3960 2880" xmlns="http://www.w3.org/2000/svg" xmlns:xlink="http://www.w3.org/1999/xlink">
	<desc>Stata Graph - Graph</desc>
	<rect x="0" y="0" width="3960" height="2880" style="fill:#EAF2F3;stroke:none"/>
	<rect x="0.00" y="0.00" width="3959.88" height="2880.00" style="fill:#EAF2F3"/>
	<rect x="2.88" y="2.88" width="3954.12" height="2874.24" style="fill:none;stroke:#EAF2F3;stroke-width:5.76"/>
	<rect x="390.80" y="261.37" width="3468.22" height="2227.82" style="fill:#FFFFFF"/>
	<rect x="393.68" y="264.25" width="3462.46" height="2222.06" style="fill:none;stroke:#FFFFFF;stroke-width:5.76"/>
	<line x1="390.80" y1="2425.82" x2="3859.02" y2="2425.82" style="stroke:#EAF2F3;stroke-width:8.64"/>
	<line x1="390.80" y1="1940.71" x2="3859.02" y2="1940.71" style="stroke:#EAF2F3;stroke-width:8.64"/>
	<line x1="390.80" y1="1455.59" x2="3859.02" y2="1455.59" style="stroke:#EAF2F3;stroke-width:8.64"/>
	<line x1="390.80" y1="970.48" x2="3859.02" y2="970.48" style="stroke:#EAF2F3;stroke-width:8.64"/>
	<line x1="390.80" y1="485.36" x2="3859.02" y2="485.36" style="stroke:#EAF2F3;stroke-width:8.64"/>
	<line x1="454.16" y1="2351.08" x2="454.16" y2="2322.37" style="stroke:#1A476F;stroke-width:8.64"/>
	<line x1="432.13" y1="2322.37" x2="476.19" y2="2322.37" stroke-linecap="round" style="stroke:#1A476F;stroke-width:8.64"/>
	<line x1="432.13" y1="2351.08" x2="476.19" y2="2351.08" stroke-linecap="round" style="stroke:#1A476F;stroke-width:8.64"/>
	<line x1="1289.47" y1="2328.18" x2="1289.47" y2="2186.73" style="stroke:#1A476F;stroke-width:8.64"/>
	<line x1="1267.45" y1="2186.73" x2="1311.50" y2="2186.73" stroke-linecap="round" style="stroke:#1A476F;stroke-width:8.64"/>
	<line x1="1267.45" y1="2328.18" x2="1311.50" y2="2328.18" stroke-linecap="round" style="stroke:#1A476F;stroke-width:8.64"/>
	<line x1="2124.91" y1="2007.91" x2="2124.91" y2="1787.62" style="stroke:#1A476F;stroke-width:8.64"/>
	<line x1="2102.88" y1="1787.62" x2="2146.94" y2="1787.62" stroke-linecap="round" style="stroke:#1A476F;stroke-width:8.64"/>
	<line x1="2102.88" y1="2007.91" x2="2146.94" y2="2007.91" stroke-linecap="round" style="stroke:#1A476F;stroke-width:8.64"/>
	<line x1="2960.35" y1="1244.59" x2="2960.35" y2="972.83" style="stroke:#1A476F;stroke-width:8.64"/>
	<line x1="2938.32" y1="972.83" x2="2982.38" y2="972.83" stroke-linecap="round" style="stroke:#1A476F;stroke-width:8.64"/>
	<line x1="2938.32" y1="1244.59" x2="2982.38" y2="1244.59" stroke-linecap="round" style="stroke:#1A476F;stroke-width:8.64"/>
	<line x1="3795.66" y1="582.14" x2="3795.66" y2="324.73" style="stroke:#1A476F;stroke-width:8.64"/>
	<line x1="3773.63" y1="324.73" x2="3817.69" y2="324.73" stroke-linecap="round" style="stroke:#1A476F;stroke-width:8.64"/>
	<line x1="3773.63" y1="582.14" x2="3817.69" y2="582.14" stroke-linecap="round" style="stroke:#1A476F;stroke-width:8.64"/>
	<path d=" M454.04 2336.72 L1289.47 2257.52 L2124.91 1897.77 L2960.22 1108.83 L3795.66 453.56" stroke-linecap="round" stroke-linejoin="round" style="fill:none;stroke:#1A476F;stroke-width:8.64"/>
	<circle cx="454.04" cy="2336.72" r="26.35" style="fill:#1A476F"/>
	<circle cx="454.04" cy="2336.72" r="22.03" style="fill:none;stroke:#1A476F;stroke-width:8.64"/>
	<circle cx="1289.47" cy="2257.52" r="26.35" style="fill:#1A476F"/>
	<circle cx="1289.47" cy="2257.52" r="22.03" style="fill:none;stroke:#1A476F;stroke-width:8.64"/>
	<circle cx="2124.91" cy="1897.77" r="26.35" style="fill:#1A476F"/>
	<circle cx="2124.91" cy="1897.77" r="22.03" style="fill:none;stroke:#1A476F;stroke-width:8.64"/>
	<circle cx="2960.22" cy="1108.83" r="26.35" style="fill:#1A476F"/>
	<circle cx="2960.22" cy="1108.83" r="22.03" style="fill:none;stroke:#1A476F;stroke-width:8.64"/>
	<circle cx="3795.66" cy="453.56" r="26.35" style="fill:#1A476F"/>
	<circle cx="3795.66" cy="453.56" r="22.03" style="fill:none;stroke:#1A476F;stroke-width:8.64"/>
	<line x1="390.80" y1="2489.19" x2="390.80" y2="261.37" style="stroke:#000000;stroke-width:5.76"/>
	<line x1="390.80" y1="2425.82" x2="350.83" y2="2425.82" style="stroke:#000000;stroke-width:5.76"/>
	<text x="300.72" y="2425.82" style="font-family:'Arial';font-size:99.99px;fill:#000000" transform="rotate(-90 300.72,2425.82)" text-anchor="middle">0</text>
	<line x1="390.80" y1="1940.71" x2="350.83" y2="1940.71" style="stroke:#000000;stroke-width:5.76"/>
	<text x="300.72" y="1940.71" style="font-family:'Arial';font-size:99.99px;fill:#000000" transform="rotate(-90 300.72,1940.71)" text-anchor="middle">.1</text>
	<line x1="390.80" y1="1455.59" x2="350.83" y2="1455.59" style="stroke:#000000;stroke-width:5.76"/>
	<text x="300.72" y="1455.59" style="font-family:'Arial';font-size:99.99px;fill:#000000" transform="rotate(-90 300.72,1455.59)" text-anchor="middle">.2</text>
	<line x1="390.80" y1="970.48" x2="350.83" y2="970.48" style="stroke:#000000;stroke-width:5.76"/>
	<text x="300.72" y="970.48" style="font-family:'Arial';font-size:99.99px;fill:#000000" transform="rotate(-90 300.72,970.48)" text-anchor="middle">.3</text>
	<line x1="390.80" y1="485.36" x2="350.83" y2="485.36" style="stroke:#000000;stroke-width:5.76"/>
	<text x="300.72" y="485.36" style="font-family:'Arial';font-size:99.99px;fill:#000000" transform="rotate(-90 300.72,485.36)" text-anchor="middle">.4</text>
	<text x="190.71" y="1375.28" style="font-family:'Arial';font-size:99.99px;fill:#000000" transform="rotate(-90 190.71,1375.28)" text-anchor="middle">Effects on Pr(Graduate=1,Program=0)</text>
	<line x1="390.80" y1="2489.19" x2="3859.02" y2="2489.19" style="stroke:#000000;stroke-width:5.76"/>
	<line x1="454.16" y1="2489.19" x2="454.16" y2="2529.16" style="stroke:#000000;stroke-width:5.76"/>
	<text x="454.16" y="2619.14" style="font-family:'Arial';font-size:99.99px;fill:#000000" text-anchor="middle">income</text>
	<line x1="1289.47" y1="2489.19" x2="1289.47" y2="2529.16" style="stroke:#000000;stroke-width:5.76"/>
	<text x="1289.47" y="2619.14" style="font-family:'Arial';font-size:99.99px;fill:#000000" text-anchor="middle">1.roommate</text>
	<line x1="2124.91" y1="2489.19" x2="2124.91" y2="2529.16" style="stroke:#000000;stroke-width:5.76"/>
	<text x="2124.91" y="2619.14" style="font-family:'Arial';font-size:99.99px;fill:#000000" text-anchor="middle">25.hsgpagrp</text>
	<line x1="2960.35" y1="2489.19" x2="2960.35" y2="2529.16" style="stroke:#000000;stroke-width:5.76"/>
	<text x="2960.35" y="2619.14" style="font-family:'Arial';font-size:99.99px;fill:#000000" text-anchor="middle">30.hsgpagrp</text>
	<line x1="3795.66" y1="2489.19" x2="3795.66" y2="2529.16" style="stroke:#000000;stroke-width:5.76"/>
	<text x="3795.66" y="2619.14" style="font-family:'Arial';font-size:99.99px;fill:#000000" text-anchor="middle">35.hsgpagrp</text>
	<text x="2124.91" y="2729.16" style="font-family:'Arial';font-size:99.99px;fill:#000000" text-anchor="middle">Effects with Respect to</text>
	<text x="1979.88" y="206.19" style="font-family:'Arial';font-size:125.98px;fill:#1E2D53" text-anchor="middle">Average Marginal Effects with 95% CIs</text>
</svg>
